<?xml version="1.0" encoding="UTF-8"?>
<svg xmlns="http://www.w3.org/2000/svg" version="1.1" viewBox="0 0 1200 800">
  <defs>
    <style>
      .cls-1, .cls-2, .cls-3 {
        fill: #fff;
      }

      .cls-1, .cls-4 {
        letter-spacing: .1em;
      }

      .cls-1, .cls-4, .cls-5 {
        font-family: PublishGothicExpanded-Extrabold, 'Publish Gothic Expanded';
        font-size: 12px;
        font-weight: 700;
      }

      .cls-6 {
        stroke-width: 5px;
      }

      .cls-6, .cls-7, .cls-8, .cls-9, .cls-10 {
        fill: none;
        stroke-miterlimit: 10;
      }

      .cls-6, .cls-7, .cls-8, .cls-10 {
        stroke: #000;
      }

      .cls-2 {
        font-family: PublishGothicExpanded-Demibold, 'Publish Gothic Expanded';
        font-size: 14.24px;
        font-weight: 300;
        letter-spacing: .05em;
      }

      .cls-7 {
        stroke-width: 2px;
      }

      .cls-4, .cls-5 {
        fill: #000;
      }

      .cls-5 {
        letter-spacing: .1em;
      }

      .cls-11 {
        fill: #f4532f;
      }

      .cls-11, .cls-12, .cls-13, .cls-3 {
        stroke-width: 0px;
      }

      .cls-8 {
        stroke-width: 9px;
      }

      .cls-9 {
        stroke: #1c4eff;
        stroke-width: 18px;
      }

      .cls-12 {
        fill: #1c4efd;
      }

      .cls-13 {
        fill: #f25430;
      }

      .cls-10 {
        stroke-width: 15px;
      }
    </style>
  </defs>
  <g id="Layer_4" data-name="Layer 4">
    <polyline class="cls-7" points="208.29 316.21 314.47 390.86 243.51 492.31 155.56 616.37 176.22 632.67 211.97 663.16 510.77 875.53"/>
    <line class="cls-7" x1="-22.19" y1="400" x2="590.79" y2="819.92"/>
    <polyline class="cls-6" points="150.84 425.11 658.87 783.7 682.94 808.05"/>
    <polyline class="cls-7" points="235.45 576.5 296.51 488.86 263.22 464.14"/>
    <line class="cls-7" x1="261.27" y1="594.19" x2="200.81" y2="680.8"/>
    <line class="cls-7" x1="206.13" y1="464.14" x2="162.86" y2="526.77"/>
    <line class="cls-7" x1="99.22" y1="483.17" x2="137.07" y2="432.53"/>
    <line class="cls-7" x1="463.33" y1="732.61" x2="398.73" y2="827.6"/>
    <line class="cls-7" x1="426.39" y1="707.3" x2="353.6" y2="819.92"/>
    <line class="cls-7" x1="498.98" y1="541.85" x2="316.63" y2="808.05"/>
    <line class="cls-7" x1="410.09" y1="526.41" x2="372.5" y2="581.57"/>
    <line class="cls-7" x1="467.83" y1="520.32" x2="367.29" y2="666.82"/>
    <line class="cls-7" x1="875.27" y1="616.58" x2="803.19" y2="568.22"/>
    <line class="cls-7" x1="788.16" y1="590.67" x2="860.13" y2="640.2"/>
    <polyline class="cls-7" points="756.92 637.31 829.47 684.83 832.57 690.27 888.04 709.63"/>
    <line class="cls-7" x1="925.67" y1="655.19" x2="855.66" y2="756.49"/>
    <line class="cls-7" x1="898.18" y1="644.67" x2="857.09" y2="698.83"/>
    <line class="cls-7" x1="847.4" y1="657.71" x2="744.15" y2="814.14"/>
    <line class="cls-7" x1="868.32" y1="737.34" x2="807.96" y2="717.47"/>
    <polyline class="cls-7" points="795.77 735.93 875.88 762.75 881.44 768.54 850.33 816.51"/>
    <line class="cls-7" x1="816.34" y1="760.34" x2="774.64" y2="819.92"/>
    <line class="cls-7" x1="846.23" y1="770.22" x2="816.34" y2="816.51"/>
    <path class="cls-7" d="M690.87,735.93s27.56,20.25,44.5,28.09c16.94,7.84,127.46,45.77,127.46,45.77"/>
    <line class="cls-7" x1="680.19" y1="805.27" x2="715.44" y2="752.7"/>
    <line class="cls-7" x1="847.4" y1="657.71" x2="944.56" y2="516.73"/>
    <line class="cls-7" x1="819.92" y1="543.25" x2="891.34" y2="593.95"/>
    <path class="cls-7" d="M866.76,629.62s28.61,16.11,66.62,28.09l9.32-4.04,16.02-24.05"/>
    <polyline class="cls-7" points="885.35 602.65 1115.24 686.09 1147.77 706.66"/>
    <line class="cls-7" x1="980.85" y1="637.31" x2="940.3" y2="698.83"/>
    <polyline class="cls-7" points="923.76 809.79 1074.81 587.22 1103.78 597.08 958.72 809.79"/>
    <line class="cls-7" x1="1086.43" y1="800" x2="990.41" y2="763.33"/>
    <line class="cls-7" x1="940.3" y1="785.42" x2="968.14" y2="795.98"/>
    <line class="cls-7" x1="1020.47" y1="774.81" x2="990.41" y2="819.92"/>
    <line class="cls-7" x1="1053.51" y1="787.43" x2="1033.86" y2="816.51"/>
    <line class="cls-7" x1="1120.52" y1="775.96" x2="1103.78" y2="819.92"/>
    <line class="cls-7" x1="1150.89" y1="786.43" x2="1139.71" y2="814.96"/>
    <polyline class="cls-7" points="491.51 496.14 498.98 509.27 486.46 533.2"/>
    <line class="cls-7" x1="323.98" y1="319.83" x2="288.49" y2="372.59"/>
    <line class="cls-7" x1="333.7" y1="427.58" x2="311.1" y2="457.85"/>
    <polyline class="cls-7" points="243.93 372.59 260.22 385.93 245.47 411.38"/>
    <line class="cls-7" x1="187.65" y1="346.21" x2="224.81" y2="293.68"/>
    <polyline class="cls-7" points="133.8 506.86 120.25 528.14 112.6 531.33"/>
    <polyline class="cls-7" points="173.68 534.18 138.73 587.08 129.81 590.91"/>
    <line class="cls-7" x1="108.78" y1="519.09" x2="133.8" y2="603.01"/>
    <polyline class="cls-7" points="151.75 567.38 126.62 548.85 118.15 550.51"/>
    <line class="cls-7" x1="44.42" y1="445.63" x2="-11.97" y2="530.05"/>
    <path class="cls-7" d="M-14.52,506.86s104.82,71.94,108.33,75.44c3.5,3.5,6.05,9.56,1.59,15.61S-14.52,756.26-14.52,756.26"/>
    <line class="cls-7" x1="79.71" y1="469.8" x2="6.18" y2="575.08"/>
    <line class="cls-7" x1="16.22" y1="478.24" x2="55.54" y2="504.41"/>
    <line class="cls-7" x1="102.93" y1="644.38" x2="-17.51" y2="558.12"/>
    <line class="cls-7" x1="66.11" y1="562.54" x2="-6.23" y2="669.42"/>
    <line class="cls-7" x1="3.25" y1="730.61" x2="148.02" y2="832.91"/>
    <polyline class="cls-7" points="27.85 695.11 131.58 764.84 80.69 840.4"/>
    <line class="cls-7" x1="-6.23" y1="817.91" x2="93.09" y2="676"/>
    <line class="cls-7" x1="119.75" y1="708.3" x2="41.63" y2="823.96"/>
    <polyline class="cls-7" points="16.77 635.43 69.93 669.42 106.86 676"/>
    <path class="cls-8" d="M-14.52,662.28s31.44,30.09,57.23,26.27c25.79-3.82,49.81-20.75,92.24-7.75,42.43,13,75.14,24.12,97.71,60.35,22.57,36.22,35.35,53.65,51.65,66.9"/>
    <line class="cls-7" x1="689.71" y1="316.21" x2="520.16" y2="556.5"/>
    <path class="cls-7" d="M333.3,119.91h-52.69s1.46,91.25,3.28,93.44,49.12-.44,49.12-.44"/>
    <line class="cls-7" x1="333.3" y1="152.03" x2="280.61" y2="152.03"/>
    <line class="cls-7" x1="333.3" y1="183.41" x2="282.07" y2="183.41"/>
    <polyline class="cls-7" points="420.86 -5.99 420.86 13.65 977.44 3.83"/>
    <line class="cls-7" x1="750.82" y1="102.07" x2="597.41" y2="102.07"/>
    <polyline class="cls-7" points="595.31 -5.99 600 196.06 597.66 227.89 511.13 229.98"/>
    <polyline class="cls-7" points="455 165.32 710.92 163.64 707.76 -9.18"/>
    <line class="cls-7" x1="670.21" y1="-5.99" x2="672.18" y2="164.9"/>
    <line class="cls-7" x1="635.07" y1="165.14" x2="631.41" y2="-13.44"/>
    <line class="cls-7" x1="708.67" y1="40.54" x2="386.19" y2="45.25"/>
    <polyline class="cls-7" points="476.5 -5.99 476.5 75.85 333.01 75.85"/>
    <line class="cls-7" x1="477.23" y1="106.49" x2="517.67" y2="105.08"/>
    <polyline class="cls-7" points="709.21 70.47 476.5 75.85 477.9 134.96"/>
    <line class="cls-7" x1="555.56" y1="-7.76" x2="559.71" y2="228.81"/>
    <line class="cls-7" x1="515.69" y1="-13.44" x2="518.69" y2="166.32"/>
    <line class="cls-7" x1="600" y1="196.06" x2="525.71" y2="198.27"/>
    <line class="cls-7" x1="477.9" y1="134.96" x2="480.43" y2="214.21"/>
    <polyline class="cls-7" points="790.68 232.01 782.95 151.89 763.84 103.42"/>
    <polyline class="cls-7" points="853.06 102.43 859.56 172.39 862.98 182.31 867.77 232.01 861.95 244.92 809.95 248"/>
    <path class="cls-7" d="M786.41,187.78l63.57-5.47,42.77-1.71s23.95,8.9,31.48,13.34c7.53,4.45,19.5,8.55,19.5,8.55h20.87"/>
    <line class="cls-7" x1="782.95" y1="151.89" x2="857.24" y2="147.41"/>
    <line class="cls-7" x1="854.7" y1="120.08" x2="773.47" y2="127.86"/>
    <line class="cls-7" x1="805.64" y1="151.29" x2="807.88" y2="185.93"/>
    <path class="cls-7" d="M861.95,244.92s22.92,17.45,42.08,16.08c19.16-1.37,32.84-21.55,32.84-21.55h25.53"/>
    <path class="cls-9" d="M-32.41,99.14c35.04,14.78,60.59,18.63,98.52,0,37.93-18.63,108.15-79.29,118.38-28.68,10.23,50.61-5.46,111.6,0,143.75,5.46,32.15,10.56,44.87,50.96,46.86,40.4,1.99,71.98-20.15,113.41,4.38,41.42,24.53,87.9,36.37,123.45,11.84,35.55-24.53,60.5-32.99,92-20.3,31.51,12.69,93.94,21.99,137.58,26.22,43.64,4.23,11.68,56.95,17.09,89.37,5.41,32.43,9.88,53.57,44.86,60.34,34.98,6.77,67.8-59.36,107.72-69.36,39.92-10,109.96.49,148.86-3.98,38.91-4.48,61.84,39.51,83.36,80.11,21.52,40.6,110.2,69.58,110.2,69.58"/>
    <polyline class="cls-7" points="1096.51 99.14 1099.57 235.6 1213.98 235.6"/>
    <polyline class="cls-7" points="1030.48 100.45 1030.48 139.06 1097.4 139.06"/>
    <polyline class="cls-7" points="1203.96 193.57 1120.8 195.56 1106.08 200.44 1099.27 222.09"/>
    <line class="cls-7" x1="995.79" y1="131.71" x2="962.7" y2="131.71"/>
    <path class="cls-6" d="M644.77,583.34c-23.06,11.25-44.93,26.3-61.37,47.18-52.55,66.75-144.86,214.46-144.86,214.46"/>
    <path class="cls-8" d="M988.17-15.69s-29.82,31.25-25.56,144.86c4.26,113.62,7.1,137.76-51.13,224.4-58.23,86.63-116.46,174.69-142.02,188.89-17.57,9.76-74.03,16.17-124.68,40.87"/>
    <path class="cls-8" d="M644.12,585.29c-19.36-6.46-33.4-10.73-38.57-11.42-47.57-6.33-79.97,20.03-105.21,9.12C439.47,556.69-32.41,210.5-32.41,210.5"/>
    <path class="cls-8" d="M1213.98,808.05s-224.36-76.41-236.5-83.49c-12.14-7.08-60.85-44.47-71.85-46.55-10.25-1.94-181.41-66-261.52-92.71"/>
    <line class="cls-7" x1="1222.79" y1="592.53" x2="1060.67" y2="839.19"/>
    <path class="cls-6" d="M1265.32,146l-117.57-46.85-396.92,4.42s-14.25,22.79-41.42,25.81c-27.17,3.02-376.39,7.79-376.39,7.79"/>
    <path class="cls-6" d="M333.01-15.69s.65,209.66,0,228.59c-.65,18.94-31.99,85.54-56.15,117.53-24.16,31.99-30.86,47.64-61.13,59.73-30.28,12.09-42.03,23.19-64.88,34.95-22.85,11.75-78.6,46.01-127.2,56.47l-45.83-28.39"/>
    <polyline class="cls-7" points="296.03 300.7 323.98 319.83 354.13 327.36 463.94 400"/>
    <path class="cls-6" d="M507.01,819.92s105.94-154.4,142.12-207.25c31.23-45.63,87.33-59.71,87.33-59.71"/>
    <polyline class="cls-7" points="765.01 625.22 857.09 487.75 831.63 470.43"/>
    <line class="cls-6" x1="634.61" y1="819.92" x2="765.01" y2="625.22"/>
    <line class="cls-7" x1="835.82" y1="519.51" x2="809" y2="500.93"/>
    <polyline class="cls-7" points="813.41 552.96 783.09 531.3 761.21 516.73 742.55 551.4 793.07 583.34"/>
    <line class="cls-7" x1="653.45" y1="606.75" x2="736.45" y2="667.87"/>
    <line class="cls-7" x1="718.98" y1="693.96" x2="302.55" y2="406.05"/>
    <line class="cls-7" x1="537.57" y1="291.45" x2="410.09" y2="480.4"/>
    <line class="cls-7" x1="452.89" y1="327.59" x2="347.26" y2="483.17"/>
    <polyline class="cls-7" points="395.67 470.43 374.72 502.21 293.96 616.58"/>
    <line class="cls-7" x1="403.73" y1="400" x2="445.73" y2="427.58"/>
    <line class="cls-7" x1="385.2" y1="427.3" x2="426.83" y2="455.59"/>
    <line class="cls-7" x1="441.04" y1="345.04" x2="481.79" y2="374.13"/>
    <line class="cls-7" x1="214.41" y1="719.95" x2="288.51" y2="612.85"/>
    <polyline class="cls-7" points="316.63 632.11 293.96 666.4 374.18 724.04"/>
    <polyline class="cls-7" points="265.98 701.55 244.31 736.26 326.1 794.22"/>
    <line class="cls-7" x1="321.68" y1="741.14" x2="288.51" y2="788.76"/>
    <polyline class="cls-7" points="295.19 722.31 261.27 770.01 347.18 829.13"/>
    <line class="cls-7" x1="244.31" y1="724.04" x2="220.99" y2="710.43"/>
    <polyline class="cls-7" points="349.06 654.33 365.6 626.87 313.12 589.45"/>
    <line class="cls-7" x1="401.08" y1="746.46" x2="528.77" y2="835.36"/>
    <line class="cls-7" x1="555.17" y1="749.72" x2="518.09" y2="722.31"/>
    <line class="cls-7" x1="578.93" y1="597.13" x2="495.91" y2="717.14"/>
    <line class="cls-7" x1="699.99" y1="722.31" x2="559.5" y2="625.22"/>
    <line class="cls-7" x1="680.19" y1="751.87" x2="539.78" y2="653.73"/>
    <line class="cls-7" x1="566.35" y1="803.18" x2="739.46" y2="552.19"/>
    <line class="cls-7" x1="809" y1="500.93" x2="603.49" y2="808.05"/>
    <path class="cls-10" d="M306.23-15.69S117.11,59.24,79.71,162.13c-37.41,102.89-20.88,135.41-50.48,197.45-29.6,62.04-102.61,162.86-102.61,162.86"/>
    <path class="cls-7" d="M477.23,106.49s-38.82-1.3-49.74-7.34c-10.91-6.04-1.94-16.27-94.19-10.45l-51.23,3-1.46,28.21"/>
    <line class="cls-7" x1="386.19" y1="76.44" x2="386.19" y2="-15.69"/>
  </g>
  <g id="Layer_5" data-name="Layer 5">
    <rect class="cls-3" x="943.73" y="142.74" width="13.85" height="83.24"/>
    <rect class="cls-3" x="564.33" y="149.31" width="14.6" height="71.67"/>
    <rect class="cls-3" x="436.11" y="545.57" width="61.81" height="11.4" transform="translate(379.97 -165.96) rotate(33.35)"/>
    <rect class="cls-3" x="581.97" y="164.9" width="61.81" height="11.4" transform="translate(783.48 -442.28) rotate(90)"/>
    <rect class="cls-3" x="502.17" y="649.04" width="97.59" height="11.4" transform="translate(-301.93 724.15) rotate(-54.57)"/>
    <polyline class="cls-11" points="595.1 387.57 649.4 309.39 678.56 329.68 667.57 345.74 656.37 361.58 641.58 382.92 632.92 395.18 624.26 407.86 595.1 387.57"/>
    <text class="cls-4" transform="translate(575.39 218.73) rotate(-90)"><tspan x="0" y="0">BAYOU ST</tspan></text>
    <rect class="cls-3" x="458.64" y="67.22" width="14.6" height="90.96"/>
    <text class="cls-5" transform="translate(469.71 155.92) rotate(-90)"><tspan x="0" y="0">MEADOW ST</tspan></text>
    <rect class="cls-3" x="315.1" y="42.23" width="14.6" height="71.67" transform="translate(385.3 -247.63) rotate(87.32)"/>
    <text class="cls-5" transform="translate(289.03 83.35) rotate(-2.68)"><tspan x="0" y="0">MELVA ST</tspan></text>
    <text class="cls-5" transform="translate(790.68 96.41)"><tspan x="0" y="0">CLINTON DR</tspan></text>
    <text class="cls-4" transform="translate(954.36 222.85) rotate(-90)"><tspan x="0" y="0">HIRSCH RD</tspan></text>
    <text class="cls-4" transform="translate(617.2 218.85) rotate(-90)"><tspan x="0" y="0">GROVE ST</tspan></text>
    <text class="cls-1" transform="translate(569.05 264.23) rotate(11.18)"><tspan x="0" y="0">BUFFALO BAYOU</tspan></text>
    <text class="cls-5" transform="translate(541.42 516.37) rotate(-54.66)"><tspan x="0" y="0">N VELASCO ST</tspan></text>
    <text class="cls-5" transform="translate(384.62 501.96) rotate(33.35)"><tspan x="0" y="0">NAVIGATION BLVD</tspan></text>
    <rect class="cls-3" x="359.73" y="572.05" width="52.21" height="11.4" transform="translate(406.35 -116.69) rotate(35.43)"/>
    <text class="cls-5" transform="translate(345.12 554.6) rotate(35.43)"><tspan x="0" y="0">CANAL ST</tspan></text>
    <text class="cls-5" transform="translate(483.67 361.5) rotate(-56.19)"><tspan x="0" y="0">MIDDLE ST</tspan></text>
    <text class="cls-5" transform="translate(368.54 442.25) rotate(-55.59)"><tspan x="0" y="0">N NAGLE ST</tspan></text>
    <text class="cls-4" transform="translate(95.06 657) rotate(19.4)"><tspan x="0" y="0">HARRISBURG BLVD</tspan></text>
    <text class="cls-5" transform="translate(517.5 709.05) rotate(-54.57)"><tspan x="0" y="0">N SAMPSON ST</tspan></text>
    <rect class="cls-3" x="548.59" y="688.04" width="62.18" height="11.4" transform="translate(-320.44 777.87) rotate(-55.46)"/>
    <text class="cls-5" transform="translate(557.11 732.96) rotate(-55.46)"><tspan x="0" y="0">N YORK ST</tspan></text>
    <text class="cls-5" transform="translate(822.41 468.43) rotate(-55.46)"><tspan x="0" y="0">N YORK ST</tspan></text>
    <rect class="cls-3" x="571.28" y="705.25" width="91.82" height="11.4" transform="translate(-317.97 819.82) rotate(-55.68)"/>
    <text class="cls-5" transform="translate(586.39 762.52) rotate(-55.68)"><tspan x="0" y="0">N HUTCHESON ST</tspan></text>
    <rect class="cls-3" x="601.05" y="719.42" width="91.82" height="11.4" transform="translate(-315.72 857.79) rotate(-56.11)"/>
    <text class="cls-5" transform="translate(616.55 776.93) rotate(-56.11)"><tspan x="0" y="0">N EVERTON ST</tspan></text>
    <rect class="cls-3" x="622.93" y="749.2" width="83.48" height="11.4" transform="translate(-332.6 885.66) rotate(-56.11)"/>
    <text class="cls-5" transform="translate(646.94 787.84) rotate(-56.11)"><tspan x="0" y="0">N MILBY ST</tspan></text>
    <rect class="cls-3" x="763.31" y="678.83" width="110.35" height="11.4" transform="translate(-201.84 996.69) rotate(-56.92)"/>
    <text class="cls-5" transform="translate(793.92 728.98) rotate(-56.92)"><tspan x="0" y="0">N DRENNAN ST</tspan></text>
    <text class="cls-5" transform="translate(1004.37 733.73) rotate(-55.96)"><tspan x="0" y="0">N SUPER ST</tspan></text>
    <rect class="cls-3" x="707.77" y="750.67" width="83.48" height="11.4" transform="translate(364.3 -236.34) rotate(23.53)"/>
    <text class="cls-5" transform="translate(713.91 744.91) rotate(23.53)"><tspan x="0" y="0">LOVEJOY ST</tspan></text>
    <text class="cls-5" transform="translate(923.86 610.53) rotate(19.62)"><tspan x="0" y="0">CRITES ST</tspan></text>
    <g>
      <g>
        <path class="cls-3" d="M82.62,188.04c-.02-.08-.1-.13-.18-.13h-27.56c-.08,0-.16.06-.18.13-.47,1.63-.7,3.32-.7,5,0,1.8.27,3.6.8,5.34,2.96,9.3,12.71,12.2,13.82,12.51h.1c1.1-.31,10.86-3.22,13.82-12.51,1.03-3.36,1.07-6.96.1-10.34ZM82.17,198.26c-2.86,8.98-12.22,11.89-13.51,12.25-1.29-.36-10.66-3.27-13.51-12.25-1-3.25-1.05-6.73-.13-10h27.28c.91,3.28.87,6.75-.13,10ZM82.39,187.24c-.33-.99-.72-1.96-1.17-2.91-.47-.97-1-1.91-1.59-2.82-.05-.07-.14-.1-.22-.07-1.67.59-3.43.91-5.2.92-1.87.02-3.72-.29-5.48-.92-.04-.01-.08-.01-.12,0-1.76.62-3.61.94-5.48.92-1.77-.02-3.53-.33-5.2-.92-.08-.03-.16,0-.21.06-.59.9-1.13,1.85-1.6,2.82-.45.94-.85,1.92-1.17,2.91-.02.06,0,.12.03.17.03.05.09.07.15.07h27.09c.06,0,.11-.01.15-.06.04-.05.05-.11.03-.17ZM55.37,187.11h0c.3-.91.66-1.79,1.07-2.63.44-.91.94-1.8,1.49-2.65,1.67.58,3.42.88,5.18.9,1.89.01,3.76-.29,5.54-.92,1.78.63,3.66.95,5.55.94,1.76-.02,3.51-.32,5.18-.9.55.85,1.05,1.74,1.49,2.65.41.85.77,1.73,1.07,2.62h-26.58ZM82.39,187.24c-.33-.99-.72-1.96-1.17-2.91-.47-.97-1-1.91-1.59-2.82-.05-.07-.14-.1-.22-.07-1.67.59-3.43.91-5.2.92-1.87.02-3.72-.29-5.48-.92-.04-.01-.08-.01-.12,0-1.76.62-3.61.94-5.48.92-1.77-.02-3.53-.33-5.2-.92-.08-.03-.16,0-.21.06-.59.9-1.13,1.85-1.6,2.82-.45.94-.85,1.92-1.17,2.91-.02.06,0,.12.03.17.03.05.09.07.15.07h27.09c.06,0,.11-.01.15-.06.04-.05.05-.11.03-.17ZM55.37,187.11h0c.3-.91.66-1.79,1.07-2.63.44-.91.94-1.8,1.49-2.65,1.67.58,3.42.88,5.18.9,1.89.01,3.76-.29,5.54-.92,1.78.63,3.66.95,5.55.94,1.76-.02,3.51-.32,5.18-.9.55.85,1.05,1.74,1.49,2.65.41.85.77,1.73,1.07,2.62h-26.58ZM82.62,188.04c-.02-.08-.1-.13-.18-.13h-27.56c-.08,0-.16.06-.18.13-.47,1.63-.7,3.32-.7,5,0,1.8.27,3.6.8,5.34,2.96,9.3,12.71,12.2,13.82,12.51h.1c1.1-.31,10.86-3.22,13.82-12.51,1.03-3.36,1.07-6.96.1-10.34ZM82.17,198.26c-2.86,8.98-12.22,11.89-13.51,12.25-1.29-.36-10.66-3.27-13.51-12.25-1-3.25-1.05-6.73-.13-10h27.28c.91,3.28.87,6.75-.13,10ZM82.62,188.04c-.02-.08-.1-.13-.18-.13h-27.56c-.08,0-.16.06-.18.13-.47,1.63-.7,3.32-.7,5,0,1.8.27,3.6.8,5.34,2.96,9.3,12.71,12.2,13.82,12.51h.1c1.1-.31,10.86-3.22,13.82-12.51,1.03-3.36,1.07-6.96.1-10.34ZM82.17,198.26c-2.86,8.98-12.22,11.89-13.51,12.25-1.29-.36-10.66-3.27-13.51-12.25-1-3.25-1.05-6.73-.13-10h27.28c.91,3.28.87,6.75-.13,10ZM55.12,187.47h27.09c.06,0,.11-.01.15-.06.04-.05.05-.11.03-.17-.33-.99-.72-1.96-1.17-2.91-.47-.97-1-1.91-1.59-2.82-.05-.07-.14-.1-.22-.07-1.67.59-3.43.91-5.2.92-1.87.02-3.72-.29-5.48-.92-.04-.01-.08-.01-.12,0-1.76.62-3.61.94-5.48.92-1.77-.02-3.53-.33-5.2-.92-.08-.03-.16,0-.21.06-.59.9-1.13,1.85-1.6,2.82-.45.94-.85,1.92-1.17,2.91-.02.06,0,.12.03.17.03.05.09.07.15.07ZM55.37,187.1c.3-.9.66-1.77,1.07-2.62.44-.91.94-1.8,1.49-2.65,1.67.58,3.42.88,5.18.9,1.89.01,3.76-.29,5.54-.92,1.78.63,3.66.95,5.55.94,1.76-.02,3.51-.32,5.18-.9.55.85,1.05,1.74,1.49,2.65.41.85.77,1.73,1.07,2.62h-26.58,0ZM83.69,187.72l-.07-.24c-.06-.2-.12-.44-.16-.58-.34-1.05-.75-2.08-1.25-3.07-.49-1.02-1.04-2-1.66-2.95l-.48-.73c-.05-.07-.14-.1-.22-.07l-.82.29c-1.55.55-3.19.84-4.84.86h-.13c-1.7,0-3.39-.29-5-.86l-.36-.13s-.08-.01-.12,0l-.36.13c-1.59.57-3.27.86-4.97.86h-.13c-1.65-.02-3.28-.3-4.84-.86l-.81-.27c-.08-.03-.17,0-.22.07l-.48.72c-.62.94-1.18,1.93-1.67,2.95-.5.99-.92,2.02-1.27,3.07-.04.14-.11.38-.16.58l-.08.24c-1.03,3.6-1,7.41.1,10.99,3.14,9.85,13.43,12.93,14.59,13.25l.31.09h.11s.3-.09.3-.09c1.15-.32,11.43-3.39,14.56-13.25.57-1.85.85-3.76.85-5.67,0-1.79-.25-3.58-.75-5.32ZM83.24,198.59c-3.08,9.67-13.19,12.69-14.33,13l-.25.07-.24-.07c-1.14-.31-11.25-3.33-14.33-13-1.08-3.51-1.12-7.25-.1-10.77l.07-.24c.05-.22.12-.44.16-.57.33-1.04.74-2.05,1.23-3.02.48-1.01,1.03-1.98,1.65-2.9l.4-.61.69.25c1.59.56,3.27.86,4.96.87h.13c1.73,0,3.46-.29,5.09-.87l.31-.12.31.12c1.62.58,3.33.87,5.05.87h.17c1.69-.01,3.37-.31,4.96-.87l.69-.25.4.61c.62.93,1.17,1.9,1.65,2.9.49.98.9,1.98,1.23,3.02.04.13.1.37.16.57l.07.24c1.01,3.52.98,7.27-.1,10.77ZM82.44,187.91h-27.56c-.08,0-.16.06-.18.13-.47,1.63-.7,3.32-.7,5,0,1.8.27,3.6.8,5.34,2.96,9.3,12.71,12.2,13.82,12.51h.1c1.1-.31,10.86-3.22,13.82-12.51,1.03-3.36,1.07-6.96.1-10.34-.02-.08-.1-.13-.18-.13ZM82.17,198.26c-2.86,8.98-12.22,11.89-13.51,12.25-1.29-.36-10.66-3.27-13.51-12.25-1-3.25-1.05-6.73-.13-10h27.28c.91,3.28.87,6.75-.13,10ZM55.12,187.47h27.09c.06,0,.11-.01.15-.06.04-.05.05-.11.03-.17-.33-.99-.72-1.96-1.17-2.91-.47-.97-1-1.91-1.59-2.82-.05-.07-.14-.1-.22-.07-1.67.59-3.43.91-5.2.92-1.87.02-3.72-.29-5.48-.92-.04-.01-.08-.01-.12,0-1.76.62-3.61.94-5.48.92-1.77-.02-3.53-.33-5.2-.92-.08-.03-.16,0-.21.06-.59.9-1.13,1.85-1.6,2.82-.45.94-.85,1.92-1.17,2.91-.02.06,0,.12.03.17.03.05.09.07.15.07ZM55.37,187.1c.3-.9.66-1.77,1.07-2.62.44-.91.94-1.8,1.49-2.65,1.67.58,3.42.88,5.18.9,1.89.01,3.76-.29,5.54-.92,1.78.63,3.66.95,5.55.94,1.76-.02,3.51-.32,5.18-.9.55.85,1.05,1.74,1.49,2.65.41.85.77,1.73,1.07,2.62h-26.58,0ZM82.39,187.24c-.33-.99-.72-1.96-1.17-2.91-.47-.97-1-1.91-1.59-2.82-.05-.07-.14-.1-.22-.07-1.67.59-3.43.91-5.2.92-1.87.02-3.72-.29-5.48-.92-.04-.01-.08-.01-.12,0-1.76.62-3.61.94-5.48.92-1.77-.02-3.53-.33-5.2-.92-.08-.03-.16,0-.21.06-.59.9-1.13,1.85-1.6,2.82-.45.94-.85,1.92-1.17,2.91-.02.06,0,.12.03.17.03.05.09.07.15.07h27.09c.06,0,.11-.01.15-.06.04-.05.05-.11.03-.17ZM55.37,187.11h0c.3-.91.66-1.79,1.07-2.63.44-.91.94-1.8,1.49-2.65,1.67.58,3.42.88,5.18.9,1.89.01,3.76-.29,5.54-.92,1.78.63,3.66.95,5.55.94,1.76-.02,3.51-.32,5.18-.9.55.85,1.05,1.74,1.49,2.65.41.85.77,1.73,1.07,2.62h-26.58ZM82.62,188.04c-.02-.08-.1-.13-.18-.13h-27.56c-.08,0-.16.06-.18.13-.47,1.63-.7,3.32-.7,5,0,1.8.27,3.6.8,5.34,2.96,9.3,12.71,12.2,13.82,12.51h.1c1.1-.31,10.86-3.22,13.82-12.51,1.03-3.36,1.07-6.96.1-10.34ZM82.17,198.26c-2.86,8.98-12.22,11.89-13.51,12.25-1.29-.36-10.66-3.27-13.51-12.25-1-3.25-1.05-6.73-.13-10h27.28c.91,3.28.87,6.75-.13,10ZM82.62,188.04c-.02-.08-.1-.13-.18-.13h-27.56c-.08,0-.16.06-.18.13-.47,1.63-.7,3.32-.7,5,0,1.8.27,3.6.8,5.34,2.96,9.3,12.71,12.2,13.82,12.51h.1c1.1-.31,10.86-3.22,13.82-12.51,1.03-3.36,1.07-6.96.1-10.34ZM82.17,198.26c-2.86,8.98-12.22,11.89-13.51,12.25-1.29-.36-10.66-3.27-13.51-12.25-1-3.25-1.05-6.73-.13-10h27.28c.91,3.28.87,6.75-.13,10ZM82.39,187.24c-.33-.99-.72-1.96-1.17-2.91-.47-.97-1-1.91-1.59-2.82-.05-.07-.14-.1-.22-.07-1.67.59-3.43.91-5.2.92-1.87.02-3.72-.29-5.48-.92-.04-.01-.08-.01-.12,0-1.76.62-3.61.94-5.48.92-1.77-.02-3.53-.33-5.2-.92-.08-.03-.16,0-.21.06-.59.9-1.13,1.85-1.6,2.82-.45.94-.85,1.92-1.17,2.91-.02.06,0,.12.03.17.03.05.09.07.15.07h27.09c.06,0,.11-.01.15-.06.04-.05.05-.11.03-.17ZM55.37,187.11h0c.3-.91.66-1.79,1.07-2.63.44-.91.94-1.8,1.49-2.65,1.67.58,3.42.88,5.18.9,1.89.01,3.76-.29,5.54-.92,1.78.63,3.66.95,5.55.94,1.76-.02,3.51-.32,5.18-.9.55.85,1.05,1.74,1.49,2.65.41.85.77,1.73,1.07,2.62h-26.58ZM82.62,188.04c-.02-.08-.1-.13-.18-.13h-27.56c-.08,0-.16.06-.18.13-.47,1.63-.7,3.32-.7,5,0,1.8.27,3.6.8,5.34,2.96,9.3,12.71,12.2,13.82,12.51h.1c1.1-.31,10.86-3.22,13.82-12.51,1.03-3.36,1.07-6.96.1-10.34ZM82.17,198.26c-2.86,8.98-12.22,11.89-13.51,12.25-1.29-.36-10.66-3.27-13.51-12.25-1-3.25-1.05-6.73-.13-10h27.28c.91,3.28.87,6.75-.13,10ZM82.39,187.24c-.33-.99-.72-1.96-1.17-2.91-.47-.97-1-1.91-1.59-2.82-.05-.07-.14-.1-.22-.07-1.67.59-3.43.91-5.2.92-1.87.02-3.72-.29-5.48-.92-.04-.01-.08-.01-.12,0-1.76.62-3.61.94-5.48.92-1.77-.02-3.53-.33-5.2-.92-.08-.03-.16,0-.21.06-.59.9-1.13,1.85-1.6,2.82-.45.94-.85,1.92-1.17,2.91-.02.06,0,.12.03.17.03.05.09.07.15.07h27.09c.06,0,.11-.01.15-.06.04-.05.05-.11.03-.17ZM55.37,187.11h0c.3-.91.66-1.79,1.07-2.63.44-.91.94-1.8,1.49-2.65,1.67.58,3.42.88,5.18.9,1.89.01,3.76-.29,5.54-.92,1.78.63,3.66.95,5.55.94,1.76-.02,3.51-.32,5.18-.9.55.85,1.05,1.74,1.49,2.65.41.85.77,1.73,1.07,2.62h-26.58Z"/>
        <path class="cls-3" d="M83.34,187.82l-.07-.24c-.06-.2-.12-.44-.16-.57-.33-1.04-.74-2.05-1.23-3.02-.49-1.01-1.04-1.98-1.65-2.9l-.4-.61-.69.25c-1.59.56-3.27.86-4.96.87h-.17c-1.72,0-3.43-.29-5.05-.87l-.31-.12-.31.12c-1.63.58-3.36.88-5.09.87h-.13c-1.69-.01-3.37-.31-4.96-.87l-.69-.25-.4.61c-.62.93-1.17,1.9-1.65,2.9-.49.97-.9,1.98-1.23,3.02-.04.13-.11.36-.16.57l-.07.24c-1.01,3.52-.98,7.27.1,10.77,3.08,9.67,13.19,12.69,14.33,13l.24.07.25-.07c1.14-.31,11.25-3.33,14.33-13,1.08-3.51,1.11-7.25.1-10.77ZM54.94,187.22c.33-.99.72-1.96,1.17-2.91.47-.97,1.01-1.92,1.6-2.82.05-.07.13-.09.21-.06,1.67.59,3.43.91,5.2.92,1.87.01,3.72-.3,5.48-.92.04-.01.08-.01.12,0,1.76.63,3.61.94,5.48.92,1.77-.02,3.53-.33,5.2-.92.08-.03.17,0,.22.07.59.91,1.13,1.85,1.59,2.82.46.94.85,1.92,1.17,2.91.02.06,0,.12-.03.17-.04.04-.1.07-.15.06h-27.09c-.06,0-.12-.03-.15-.07-.03-.05-.05-.11-.03-.17ZM82.53,198.38c-2.96,9.28-12.72,12.2-13.82,12.5h-.05s-.05,0-.05,0c-1.1-.3-10.86-3.21-13.82-12.51-.53-1.74-.8-3.54-.8-5.34,0-1.68.23-3.37.7-5,.03-.08.1-.13.18-.13h27.56c.09,0,.16.06.18.13.97,3.38.94,6.98-.1,10.34Z"/>
        <path class="cls-13" d="M81.95,187.11h-26.58,0c.3-.91.66-1.79,1.07-2.63.44-.91.94-1.8,1.49-2.65,1.67.58,3.42.88,5.18.9,1.89.01,3.76-.29,5.54-.92,1.78.63,3.66.95,5.55.94,1.76-.02,3.51-.32,5.18-.9.55.85,1.05,1.74,1.49,2.65.41.85.77,1.73,1.07,2.62Z"/>
        <path class="cls-12" d="M82.17,198.26c-2.86,8.98-12.22,11.89-13.51,12.25-1.29-.36-10.66-3.27-13.51-12.25-1-3.25-1.05-6.73-.13-10h27.28c.91,3.28.87,6.75-.13,10Z"/>
      </g>
      <text class="cls-2" transform="translate(59.4 202.22)"><tspan x="0" y="0">69</tspan></text>
    </g>
  </g>
</svg>